<svg width="86" height="92" viewBox="0 0 86 92" fill="none" xmlns="http://www.w3.org/2000/svg">
<path d="M62.3333 43.5417L54.5417 29.7917L62.3333 16.0417H77.6875L85.4792 29.7917L77.6875 43.5417H62.3333V43.5417M35.0625 59.5833L27.2708 45.8333L35.0625 32.0833H50.4167L58.2083 45.8333L50.4167 59.5833H35.0625V59.5833M35.0625 27.5L27.2708 13.75L35.0625 0H50.4167L58.2083 13.75L50.4167 27.5H35.0625V27.5M7.79167 43.5417L0 29.7917L7.79167 16.0417H23.1458L30.5938 29.7917L23.1458 43.5417H7.79167V43.5417M7.79167 75.625L0 61.875L7.79167 48.125H23.1458L30.5938 61.875L23.1458 75.625H7.79167V75.625M35.5208 91.6667L27.2708 77.9167L35.0625 64.1667H50.4167L58.2083 77.9167L50.4167 91.6667H35.5208V91.6667M62.3333 75.625L54.5417 61.875L62.3333 48.125H77.6875L85.4792 61.875L77.6875 75.625H62.3333V75.625" fill="#FACC15"/>
</svg>
